<svg width="1444" height="202" viewBox="0 0 1444 202" fill="none" xmlns="http://www.w3.org/2000/svg">
<path d="M178.411 3.4655C149.468 52.7406 65.5099 66.5302 10.6274 26.8729C6.38298 23.8059 0 26.6716 0 31.9081V195.405C0 198.719 2.68629 201.405 6 201.405H1438C1441.31 201.405 1444 198.719 1444 195.405V47.5449C1444 42.4196 1437.95 39.6159 1433.89 42.7443C1387.76 78.2891 1339.82 86.1786 1271.16 24.9617C1269.04 23.0763 1265.78 22.9063 1263.46 24.5312C1140.52 110.598 1107.82 61.2252 1050.67 15.1446C1048.26 13.2046 1044.7 13.5402 1042.53 15.7462C925.742 134.759 842.711 58.4408 791.213 15.501C788.699 13.4044 784.913 13.8338 782.735 16.2774C697.528 111.845 621.199 47.4078 598.188 13.4964C595.8 9.97709 590.579 9.40527 587.603 12.4434C528.556 72.7157 446.442 55.4586 387.962 14.534C385.664 12.9257 382.547 13.0881 380.372 14.8599C314.396 68.6166 229.401 37.9844 188.989 1.67503C185.796 -1.19371 180.584 -0.235619 178.411 3.4655Z" fill="url(#paint0_linear_519_12)"/>
<defs>
<linearGradient id="paint0_linear_519_12" x1="722.501" y1="254.681" x2="721.987" y2="-4.59451" gradientUnits="userSpaceOnUse">
<stop offset="0.00492611" stop-color="#AEABFF"/>
<stop offset="1" stop-color="#C7D8FF"/>
</linearGradient>
</defs>
</svg>
